<!-- Generator: Gravit.io --><svg xmlns="http://www.w3.org/2000/svg" style="isolation:isolate" viewBox="170.335 98.531 175.526 167.583" width="175.526" height="167.583" xmlns:xlink="http://www.w3.org/1999/xlink"><path fill="rgb(255, 0, 0)" d="M 303.405 264.997 L 271.067 250.747 C 263.909 247.593 252.286 247.593 245.128 250.747 L 212.79 264.997 C 205.632 268.152 200.46 264.394 201.248 256.612 L 204.808 221.453 C 205.596 213.67 202.004 202.616 196.792 196.783 L 173.246 170.431 C 168.034 164.598 170.01 158.518 177.655 156.863 L 212.193 149.384 C 219.838 147.728 229.241 140.896 233.178 134.137 L 250.964 103.6 C 254.901 96.841 261.294 96.841 265.231 103.6 L 283.017 134.137 C 286.954 140.896 296.357 147.728 304.002 149.384 L 338.54 156.863 C 346.186 158.518 348.161 164.598 342.949 170.431 L 319.403 196.783 C 314.191 202.616 310.6 213.67 311.388 221.453 L 314.947 256.612 C 315.735 264.394 310.564 268.152 303.405 264.997 Z" /></svg>